<svg width="189" height="236" viewBox="0 0 189 236" fill="none" xmlns="http://www.w3.org/2000/svg">
    <path d="M4 234C4 229.029 8.02944 225 13 225H40V234H4Z" fill="#482712"/>
    <rect x="-3" y="151.282" width="32" height="88" rx="16" transform="rotate(-15 -3 151.282)" fill="#482712"/>
    <path d="M185 234C185 229.029 180.971 225 176 225H149V234H185Z" fill="#482712"/>
    <rect width="32" height="88" rx="16" transform="matrix(-0.965926 -0.258819 -0.258819 0.965926 191.686 151.282)"
          fill="#482712"/>
    <rect x="13" y="86" width="160" height="148" rx="65" fill="#E8904F"/>
    <path d="M58 222H46C42.6863 222 38 227.373 38 234H66C66 227.373 61.3137 222 58 222Z" fill="#E8904F"/>
    <path d="M46 234C46 231 46 226 48 225" stroke="black"/>
    <path d="M57 234C57 231 57 226 55 225" stroke="black"/>
    <path d="M143 222H131C127.686 222 123 227.373 123 234H151C151 227.373 146.314 222 143 222Z" fill="#E8904F"/>
    <path d="M132 234C132 231 132 226 134 225" stroke="black"/>
    <path d="M143 234C143 231 143 226 141 225" stroke="black"/>
    <path d="M21.5548 65.3425C22.9369 48.7572 36.8014 36 53.4443 36H133.556C150.199 36 164.063 48.7572 165.445 65.3425L167.585 91.0173C170.5 125.998 142.894 156 107.792 156H79.208C44.1056 156 16.5001 125.998 19.4152 91.0173L21.5548 65.3425Z"
          fill="#F6D5A9"/>
    <path d="M89 97.3438C89 101.182 84.2432 104.294 79.9189 104.703C74.3252 105.232 73 101.182 73 97.3438C73 93.5051 77.1562 89.1667 81.2162 89.1667C85.2763 89.1667 89 93.5051 89 97.3438Z"
          fill="#E8904F"/>
    <ellipse cx="81" cy="100.167" rx="3" ry="2.75" fill="black"/>
    <ellipse cx="107" cy="100.167" rx="3" ry="2.75" fill="black"/>
    <path d="M49.1194 142.506C54.7673 114.457 81.3931 104.481 94 103V174.111C86.7383 174.111 80.2165 172.136 77.8633 171.148C75.3419 174.605 62.5342 183 58.7007 183C54.5541 183 42.0596 177.568 49.1194 142.506Z"
          fill="white"/>
    <path d="M138.931 142.506C133.276 114.457 106.621 104.481 94 103V174.111C101.27 174.111 107.799 172.136 110.155 171.148C112.679 174.605 123.493 183 129.339 183C132.99 183 145.998 177.568 138.931 142.506Z"
          fill="white"/>
    <path d="M93.9997 103C81.3928 104.481 54.767 114.457 49.1191 142.506" stroke="black"/>
    <path d="M73 168C74.8333 170.167 81.8 174 93 174" stroke="black"/>
    <path d="M113 168C111.167 170.167 104.2 174 93 174" stroke="black"/>
    <path d="M94 112V118.5" stroke="black"/>
    <path d="M104 127.5C104 122.253 99.7467 118 94.5 118C89.2533 118 85 122.253 85 127.5" stroke="black"/>
    <path d="M85.4998 124C83.8998 124 83.8331 120 83.9998 118C83.9998 120 86.4997 120.833 87.4998 121C86.9998 121.833 85.4998 123.6 85.4998 124Z"
          stroke="black" stroke-linejoin="round"/>
    <path d="M103.5 124C105.1 124 105.166 120 105 118C105 120 102.5 120.833 101.5 121C102 121.833 103.5 123.6 103.5 124Z"
          stroke="black" stroke-linejoin="round"/>
    <path d="M93.9998 103C106.607 104.481 133.232 114.457 138.88 142.506" stroke="black"/>
    <circle cx="86.5" cy="103.5" r="2.5" fill="black"/>
    <circle cx="101.5" cy="103.5" r="2.5" fill="black"/>
    <path d="M101.619 101H86.3808L84.4761 105L90.6666 111C90.984 111.333 92.0951 112 93.9999 112C95.9046 112 97.0158 111.333 97.3332 111C97.6507 110.667 103.524 105 103.524 105L101.619 101Z"
          fill="black"/>
    <path d="M37 32H55.9762C63.0621 32 66.6499 40.5317 61.6936 45.5957L42.7174 64.9844C37.703 70.1078 29 66.5575 29 59.3887V40C29 35.5817 32.5817 32 37 32Z"
          fill="#482712"/>
    <path d="M149 32H130.024C122.938 32 119.35 40.5317 124.306 45.5957L143.283 64.9844C148.297 70.1078 157 66.5575 157 59.3887V40C157 35.5817 153.418 32 149 32Z"
          fill="#482712"/>
</svg>
